<mxfile host="app.diagrams.net" modified="2022-07-27T06:32:33.898Z" agent="5.0 (Windows NT 10.0; Win64; x64) AppleWebKit/537.36 (KHTML, like Gecko) Chrome/103.0.0.0 Safari/537.36" etag="d-2Ar5en5zB-FNgNl-f8" version="20.2.1" type="github">
  <diagram id="C5RBs43oDa-KdzZeNtuy" name="Page-1">
    <mxGraphModel dx="2307" dy="1216" grid="1" gridSize="10" guides="1" tooltips="1" connect="1" arrows="1" fold="1" page="1" pageScale="1" pageWidth="827" pageHeight="1169" math="0" shadow="0">
      <root>
        <mxCell id="WIyWlLk6GJQsqaUBKTNV-0" />
        <mxCell id="WIyWlLk6GJQsqaUBKTNV-1" parent="WIyWlLk6GJQsqaUBKTNV-0" />
        <mxCell id="rNVpAQP2pRgwPfajULNf-43" value="Üniverstite" style="swimlane;" vertex="1" parent="WIyWlLk6GJQsqaUBKTNV-1">
          <mxGeometry x="314" y="90" width="190" height="120" as="geometry" />
        </mxCell>
        <mxCell id="rNVpAQP2pRgwPfajULNf-57" style="edgeStyle=orthogonalEdgeStyle;rounded=0;orthogonalLoop=1;jettySize=auto;html=1;exitX=0.5;exitY=1;exitDx=0;exitDy=0;entryX=0.5;entryY=0;entryDx=0;entryDy=0;" edge="1" parent="WIyWlLk6GJQsqaUBKTNV-1" source="rNVpAQP2pRgwPfajULNf-44" target="rNVpAQP2pRgwPfajULNf-54">
          <mxGeometry relative="1" as="geometry" />
        </mxCell>
        <mxCell id="rNVpAQP2pRgwPfajULNf-58" style="edgeStyle=orthogonalEdgeStyle;rounded=0;orthogonalLoop=1;jettySize=auto;html=1;exitX=0.5;exitY=1;exitDx=0;exitDy=0;entryX=0.5;entryY=0;entryDx=0;entryDy=0;" edge="1" parent="WIyWlLk6GJQsqaUBKTNV-1" source="rNVpAQP2pRgwPfajULNf-44" target="rNVpAQP2pRgwPfajULNf-55">
          <mxGeometry relative="1" as="geometry" />
        </mxCell>
        <mxCell id="rNVpAQP2pRgwPfajULNf-59" style="edgeStyle=orthogonalEdgeStyle;rounded=0;orthogonalLoop=1;jettySize=auto;html=1;exitX=0.5;exitY=1;exitDx=0;exitDy=0;" edge="1" parent="WIyWlLk6GJQsqaUBKTNV-1" source="rNVpAQP2pRgwPfajULNf-44" target="rNVpAQP2pRgwPfajULNf-51">
          <mxGeometry relative="1" as="geometry" />
        </mxCell>
        <mxCell id="rNVpAQP2pRgwPfajULNf-60" style="edgeStyle=orthogonalEdgeStyle;rounded=0;orthogonalLoop=1;jettySize=auto;html=1;exitX=0.5;exitY=1;exitDx=0;exitDy=0;" edge="1" parent="WIyWlLk6GJQsqaUBKTNV-1" source="rNVpAQP2pRgwPfajULNf-44" target="rNVpAQP2pRgwPfajULNf-53">
          <mxGeometry relative="1" as="geometry" />
        </mxCell>
        <mxCell id="rNVpAQP2pRgwPfajULNf-44" value="" style="rhombus;whiteSpace=wrap;html=1;strokeColor=#000000;fillColor=#000000;" vertex="1" parent="WIyWlLk6GJQsqaUBKTNV-1">
          <mxGeometry x="394" y="210" width="30" height="30" as="geometry" />
        </mxCell>
        <mxCell id="rNVpAQP2pRgwPfajULNf-51" value="Çalışanlar" style="swimlane;" vertex="1" parent="WIyWlLk6GJQsqaUBKTNV-1">
          <mxGeometry x="205" y="360" width="160" height="80" as="geometry" />
        </mxCell>
        <mxCell id="rNVpAQP2pRgwPfajULNf-53" value="Sınıflıklar" style="swimlane;" vertex="1" parent="WIyWlLk6GJQsqaUBKTNV-1">
          <mxGeometry x="5" y="360" width="160" height="80" as="geometry" />
        </mxCell>
        <mxCell id="rNVpAQP2pRgwPfajULNf-54" value="Departmanlar" style="swimlane;" vertex="1" parent="WIyWlLk6GJQsqaUBKTNV-1">
          <mxGeometry x="662" y="360" width="160" height="80" as="geometry" />
        </mxCell>
        <mxCell id="rNVpAQP2pRgwPfajULNf-55" value="Çalışma Ofisleri" style="swimlane;" vertex="1" parent="WIyWlLk6GJQsqaUBKTNV-1">
          <mxGeometry x="435" y="360" width="160" height="80" as="geometry" />
        </mxCell>
        <mxCell id="rNVpAQP2pRgwPfajULNf-65" style="edgeStyle=orthogonalEdgeStyle;rounded=0;orthogonalLoop=1;jettySize=auto;html=1;exitX=1;exitY=0.5;exitDx=0;exitDy=0;entryX=0.5;entryY=0;entryDx=0;entryDy=0;" edge="1" parent="WIyWlLk6GJQsqaUBKTNV-1" source="rNVpAQP2pRgwPfajULNf-61" target="rNVpAQP2pRgwPfajULNf-64">
          <mxGeometry relative="1" as="geometry" />
        </mxCell>
        <mxCell id="rNVpAQP2pRgwPfajULNf-66" style="edgeStyle=orthogonalEdgeStyle;rounded=0;orthogonalLoop=1;jettySize=auto;html=1;exitX=1;exitY=0.5;exitDx=0;exitDy=0;entryX=0.5;entryY=0;entryDx=0;entryDy=0;" edge="1" parent="WIyWlLk6GJQsqaUBKTNV-1" source="rNVpAQP2pRgwPfajULNf-61" target="rNVpAQP2pRgwPfajULNf-62">
          <mxGeometry relative="1" as="geometry" />
        </mxCell>
        <mxCell id="rNVpAQP2pRgwPfajULNf-61" value="" style="triangle;whiteSpace=wrap;html=1;strokeColor=#000000;fillColor=#FFFFFF;direction=south;" vertex="1" parent="WIyWlLk6GJQsqaUBKTNV-1">
          <mxGeometry x="270" y="440" width="30" height="30" as="geometry" />
        </mxCell>
        <mxCell id="rNVpAQP2pRgwPfajULNf-62" value="Memur" style="swimlane;startSize=23;" vertex="1" parent="WIyWlLk6GJQsqaUBKTNV-1">
          <mxGeometry x="325" y="530" width="90" height="100" as="geometry" />
        </mxCell>
        <mxCell id="rNVpAQP2pRgwPfajULNf-64" value="Profesör" style="swimlane;" vertex="1" parent="WIyWlLk6GJQsqaUBKTNV-1">
          <mxGeometry x="155" y="530" width="90" height="100" as="geometry" />
        </mxCell>
        <mxCell id="rNVpAQP2pRgwPfajULNf-68" value="" style="endArrow=classic;html=1;rounded=0;entryX=0.5;entryY=1;entryDx=0;entryDy=0;" edge="1" parent="WIyWlLk6GJQsqaUBKTNV-1" target="rNVpAQP2pRgwPfajULNf-55">
          <mxGeometry width="50" height="50" relative="1" as="geometry">
            <mxPoint x="295" y="690" as="sourcePoint" />
            <mxPoint x="475" y="510" as="targetPoint" />
            <Array as="points">
              <mxPoint x="295" y="740" />
              <mxPoint x="515" y="740" />
              <mxPoint x="515" y="690" />
            </Array>
          </mxGeometry>
        </mxCell>
        <mxCell id="rNVpAQP2pRgwPfajULNf-71" value="" style="endArrow=none;html=1;rounded=0;entryX=0.5;entryY=1;entryDx=0;entryDy=0;" edge="1" parent="WIyWlLk6GJQsqaUBKTNV-1" target="rNVpAQP2pRgwPfajULNf-64">
          <mxGeometry width="50" height="50" relative="1" as="geometry">
            <mxPoint x="375" y="630" as="sourcePoint" />
            <mxPoint x="475" y="530" as="targetPoint" />
            <Array as="points">
              <mxPoint x="375" y="690" />
              <mxPoint x="200" y="690" />
            </Array>
          </mxGeometry>
        </mxCell>
        <mxCell id="rNVpAQP2pRgwPfajULNf-73" value="1" style="text;html=1;strokeColor=none;fillColor=none;align=center;verticalAlign=middle;whiteSpace=wrap;rounded=0;" vertex="1" parent="WIyWlLk6GJQsqaUBKTNV-1">
          <mxGeometry x="424" y="220" width="41" height="20" as="geometry" />
        </mxCell>
        <mxCell id="rNVpAQP2pRgwPfajULNf-77" value="1" style="text;html=1;strokeColor=none;fillColor=none;align=center;verticalAlign=middle;whiteSpace=wrap;rounded=0;" vertex="1" parent="WIyWlLk6GJQsqaUBKTNV-1">
          <mxGeometry x="295" y="700" width="41" height="20" as="geometry" />
        </mxCell>
        <mxCell id="rNVpAQP2pRgwPfajULNf-81" value="1" style="text;html=1;strokeColor=none;fillColor=none;align=center;verticalAlign=middle;whiteSpace=wrap;rounded=0;" vertex="1" parent="WIyWlLk6GJQsqaUBKTNV-1">
          <mxGeometry x="515" y="440" width="41" height="20" as="geometry" />
        </mxCell>
        <mxCell id="rNVpAQP2pRgwPfajULNf-82" value="1..*" style="text;html=1;strokeColor=none;fillColor=none;align=center;verticalAlign=middle;whiteSpace=wrap;rounded=0;" vertex="1" parent="WIyWlLk6GJQsqaUBKTNV-1">
          <mxGeometry x="85" y="340" width="41" height="20" as="geometry" />
        </mxCell>
        <mxCell id="rNVpAQP2pRgwPfajULNf-84" value="1..*" style="text;html=1;strokeColor=none;fillColor=none;align=center;verticalAlign=middle;whiteSpace=wrap;rounded=0;" vertex="1" parent="WIyWlLk6GJQsqaUBKTNV-1">
          <mxGeometry x="284" y="340" width="41" height="20" as="geometry" />
        </mxCell>
        <mxCell id="rNVpAQP2pRgwPfajULNf-85" value="1..*" style="text;html=1;strokeColor=none;fillColor=none;align=center;verticalAlign=middle;whiteSpace=wrap;rounded=0;" vertex="1" parent="WIyWlLk6GJQsqaUBKTNV-1">
          <mxGeometry x="545" y="340" width="41" height="20" as="geometry" />
        </mxCell>
        <mxCell id="rNVpAQP2pRgwPfajULNf-86" value="1..*" style="text;html=1;strokeColor=none;fillColor=none;align=center;verticalAlign=middle;whiteSpace=wrap;rounded=0;" vertex="1" parent="WIyWlLk6GJQsqaUBKTNV-1">
          <mxGeometry x="735" y="340" width="41" height="20" as="geometry" />
        </mxCell>
        <mxCell id="rNVpAQP2pRgwPfajULNf-91" style="edgeStyle=orthogonalEdgeStyle;rounded=0;orthogonalLoop=1;jettySize=auto;html=1;exitX=0;exitY=0.5;exitDx=0;exitDy=0;" edge="1" parent="WIyWlLk6GJQsqaUBKTNV-1" source="rNVpAQP2pRgwPfajULNf-89">
          <mxGeometry relative="1" as="geometry">
            <mxPoint x="595" y="412.33333333333326" as="targetPoint" />
          </mxGeometry>
        </mxCell>
        <mxCell id="rNVpAQP2pRgwPfajULNf-89" value="" style="rhombus;whiteSpace=wrap;html=1;strokeColor=#000000;fillColor=#000000;" vertex="1" parent="WIyWlLk6GJQsqaUBKTNV-1">
          <mxGeometry x="642" y="400" width="20" height="25" as="geometry" />
        </mxCell>
        <mxCell id="rNVpAQP2pRgwPfajULNf-92" value="1..*" style="text;html=1;strokeColor=none;fillColor=none;align=center;verticalAlign=middle;whiteSpace=wrap;rounded=0;" vertex="1" parent="WIyWlLk6GJQsqaUBKTNV-1">
          <mxGeometry x="631.5" y="380" width="41" height="20" as="geometry" />
        </mxCell>
        <mxCell id="rNVpAQP2pRgwPfajULNf-93" value="1..*" style="text;html=1;strokeColor=none;fillColor=none;align=center;verticalAlign=middle;whiteSpace=wrap;rounded=0;" vertex="1" parent="WIyWlLk6GJQsqaUBKTNV-1">
          <mxGeometry x="586" y="420" width="41" height="20" as="geometry" />
        </mxCell>
      </root>
    </mxGraphModel>
  </diagram>
</mxfile>
